grf
version=1
nRows=17
nColumns=37
inDegrees=no
endheader
time	ground_force_1_vx	ground_force_1_vy	ground_force_1_vz	ground_force_1_px	ground_force_1_py	ground_force_1_pz	ground_moment_1_mx	ground_moment_1_my	ground_moment_1_mz	ground_force_2_vx	ground_force_2_vy	ground_force_2_vz	ground_force_2_px	ground_force_2_py	ground_force_2_pz	ground_moment_2_mx	ground_moment_2_my	ground_moment_2_mz	ground_force_3_vx	ground_force_3_vy	ground_force_3_vz	ground_force_3_px	ground_force_3_py	ground_force_3_pz	ground_moment_3_mx	ground_moment_3_my	ground_moment_3_mz	ground_force_4_vx	ground_force_4_vy	ground_force_4_vz	ground_force_4_px	ground_force_4_py	ground_force_4_pz	ground_moment_4_mx	ground_moment_4_my	ground_moment_4_mz
      2.33000000	      0.00000000	     -0.00000000	      0.00000000	      0.00000000	      0.00000000	      0.00000000	      0.00000000	      0.00000000	      0.00000000	     -1.76499081	     29.53827286	   -328.02355957	   -309.23162481	  -1074.15803286	      0.00000000	     -0.00000000	      0.00000000	   2539.83225683	     -0.86930760	    -28.17461769	   -296.70880127	   -309.27948804	   -764.79009570	      0.00000000	      0.00000000	     -0.00000000	  -2831.41281721	      0.00000000	     -0.00000000	      0.00000000	      0.00000000	      0.00000000	      0.00000000	      0.00000000	      0.00000000	      0.00000000
      2.34000000	      0.00000000	     -0.00000000	      0.00000000	      0.00000000	      0.00000000	      0.00000000	      0.00000000	      0.00000000	      0.00000000	     -2.51429892	     29.30392265	   -325.90591431	   -307.84431093	  -1073.97677382	      0.00000000	      0.00000000	      0.00000000	   2452.13235407	     -0.33691380	    -28.36911389	   -297.33602905	   -309.74701686	   -764.91642653	      0.00000000	      0.00000000	     -0.00000000	  -2752.63500032	      0.00000000	     -0.00000000	      0.00000000	      0.00000000	      0.00000000	      0.00000000	      0.00000000	      0.00000000	      0.00000000
      2.35000000	      0.00000000	     -0.00000000	      0.00000000	      0.00000000	      0.00000000	      0.00000000	      0.00000000	      0.00000000	      0.00000000	     -3.17258573	     28.82571602	   -321.54812622	   -308.51473769	  -1072.36669967	      0.00000000	      0.00000000	      0.00000000	   2542.23003744	      0.23004096	    -28.24647905	   -300.05139160	   -311.75996683	   -763.72393868	      0.00000000	      0.00000000	     -0.00000000	  -2683.92660146	      0.00000000	     -0.00000000	      0.00000000	      0.00000000	      0.00000000	      0.00000000	      0.00000000	      0.00000000	      0.00000000
      2.36000000	      0.00000000	     -0.00000000	      0.00000000	      0.00000000	      0.00000000	      0.00000000	      0.00000000	      0.00000000	      0.00000000	     -3.47920990	     28.35888863	   -322.59933472	   -307.37557614	  -1073.81921779	      0.00000000	      0.00000000	      0.00000000	   2590.17388025	      0.21161115	    -28.70669176	   -302.01617432	   -312.03918886	   -763.43106010	      0.00000000	      0.00000000	     -0.00000000	  -2543.44909971	      0.00000000	     -0.00000000	      0.00000000	      0.00000000	      0.00000000	      0.00000000	      0.00000000	      0.00000000	      0.00000000
      2.37000000	      0.00000000	     -0.00000000	      0.00000000	      0.00000000	      0.00000000	      0.00000000	      0.00000000	      0.00000000	      0.00000000	     -4.51268530	     28.48471069	   -322.45330811	   -307.05050752	  -1073.75763187	      0.00000000	      0.00000000	      0.00000000	   2457.60106110	     -0.22962703	    -28.82666967	   -302.92999268	   -311.53586458	   -765.16917214	      0.00000000	      0.00000000	     -0.00000000	  -2587.55371814	      0.00000000	     -0.00000000	      0.00000000	      0.00000000	      0.00000000	      0.00000000	      0.00000000	      0.00000000	      0.00000000
      2.38000000	      0.00000000	     -0.00000000	      0.00000000	      0.00000000	      0.00000000	      0.00000000	      0.00000000	      0.00000000	      0.00000000	     -4.93982458	     28.29161263	   -317.39324951	   -305.96428771	  -1072.90056673	      0.00000000	      0.00000000	      0.00000000	   2422.05380539	     -0.92387529	    -28.88437835	   -303.34042358	   -311.03722141	   -763.71872201	      0.00000000	      0.00000000	     -0.00000000	  -2794.64525784	      0.00000000	     -0.00000000	      0.00000000	      0.00000000	      0.00000000	      0.00000000	      0.00000000	      0.00000000	      0.00000000
      2.39000000	      0.00000000	     -0.00000000	      0.00000000	      0.00000000	      0.00000000	      0.00000000	      0.00000000	      0.00000000	      0.00000000	     -4.84076595	     28.33884239	   -315.44564819	   -304.90803416	  -1073.32483670	      0.00000000	      0.00000000	      0.00000000	   2552.84256911	     -2.00335996	    -29.17923528	   -302.42330933	   -309.49755084	   -763.74971236	      0.00000000	      0.00000000	     -0.00000000	  -2518.79030549	      0.00000000	     -0.00000000	      0.00000000	      0.00000000	      0.00000000	      0.00000000	      0.00000000	      0.00000000	      0.00000000
      2.40000000	      0.00000000	     -0.00000000	      0.00000000	      0.00000000	      0.00000000	      0.00000000	      0.00000000	      0.00000000	      0.00000000	     -5.53105164	     27.88420677	   -311.45080566	   -304.95212011	  -1073.29179139	      0.00000000	      0.00000000	      0.00000000	   2462.97545847	     -2.48390451	    -28.98805406	   -300.32635498	   -309.30710579	   -764.88188203	      0.00000000	      0.00000000	     -0.00000000	  -2711.48526248	      0.00000000	     -0.00000000	      0.00000000	      0.00000000	      0.00000000	      0.00000000	      0.00000000	      0.00000000	      0.00000000
      2.41000000	      0.00000000	     -0.00000000	      0.00000000	      0.00000000	      0.00000000	      0.00000000	      0.00000000	      0.00000000	      0.00000000	     -5.81766129	     27.82197189	   -308.82952881	   -304.75526195	  -1072.05307673	      0.00000000	     -0.00000000	      0.00000000	   2491.76378645	     -2.89485999	    -29.49944280	   -299.57208252	   -307.32247735	   -764.15469552	      0.00000000	      0.00000000	     -0.00000000	  -2572.91669726	      0.00000000	     -0.00000000	      0.00000000	      0.00000000	      0.00000000	      0.00000000	      0.00000000	      0.00000000	      0.00000000
      2.42000000	      0.00000000	     -0.00000000	      0.00000000	      0.00000000	      0.00000000	      0.00000000	      0.00000000	      0.00000000	      0.00000000	     -6.49325943	     26.80916023	   -306.96395874	   -302.97334648	  -1072.65482277	      0.00000000	      0.00000000	      0.00000000	   2349.91017253	     -3.72585550	    -29.02033392	   -299.49795532	   -307.00853817	   -762.55495560	      0.00000000	      0.00000000	     -0.00000000	  -2337.11137590	      0.00000000	     -0.00000000	      0.00000000	      0.00000000	      0.00000000	      0.00000000	      0.00000000	      0.00000000	      0.00000000
      2.43000000	      0.00000000	     -0.00000000	      0.00000000	      0.00000000	      0.00000000	      0.00000000	      0.00000000	      0.00000000	      0.00000000	     -7.27138615	     26.77064133	   -304.94650269	   -302.91462216	  -1072.11781021	      0.00000000	      0.00000000	      0.00000000	   2470.34736532	     -3.83351172	    -28.79286923	   -297.20260620	   -306.94697087	   -765.14381222	      0.00000000	      0.00000000	     -0.00000000	  -2519.30586154	      0.00000000	     -0.00000000	      0.00000000	      0.00000000	      0.00000000	      0.00000000	      0.00000000	      0.00000000	      0.00000000
      2.44000000	      0.00000000	     -0.00000000	      0.00000000	      0.00000000	      0.00000000	      0.00000000	      0.00000000	      0.00000000	      0.00000000	     -8.62652683	     26.71552467	   -305.14746094	   -301.10261552	  -1075.01191791	      0.00000000	      0.00000000	      0.00000000	   2562.22722373	     -3.97291341	    -28.90018238	   -298.67480469	   -306.64499769	   -764.27750781	      0.00000000	      0.00000000	     -0.00000000	  -2530.20262138	      0.00000000	     -0.00000000	      0.00000000	      0.00000000	      0.00000000	      0.00000000	      0.00000000	      0.00000000	      0.00000000
      2.45000000	      0.00000000	     -0.00000000	      0.00000000	      0.00000000	      0.00000000	      0.00000000	      0.00000000	      0.00000000	      0.00000000	    -10.16204739	     26.06490707	   -302.09124756	   -299.06332303	  -1073.31023204	      0.00000000	      0.00000000	      0.00000000	   2472.78472430	     -3.80749834	    -28.71658292	   -299.17535400	   -306.25651908	   -764.41142131	      0.00000000	      0.00000000	     -0.00000000	  -2552.23165076	      0.00000000	     -0.00000000	      0.00000000	      0.00000000	      0.00000000	      0.00000000	      0.00000000	      0.00000000	      0.00000000
      2.46000000	      0.00000000	     -0.00000000	      0.00000000	      0.00000000	      0.00000000	      0.00000000	      0.00000000	      0.00000000	      0.00000000	    -11.53008270	     25.93694687	   -300.35781860	   -297.97397026	  -1075.26385237	      0.00000000	      0.00000000	      0.00000000	   2572.79927459	     -3.48671925	    -28.64694756	   -301.43930054	   -306.41000767	   -763.30841205	      0.00000000	      0.00000000	     -0.00000000	  -2578.10589822	      0.00000000	     -0.00000000	      0.00000000	      0.00000000	      0.00000000	      0.00000000	      0.00000000	      0.00000000	      0.00000000
      2.47000000	      0.00000000	     -0.00000000	      0.00000000	      0.00000000	      0.00000000	      0.00000000	      0.00000000	      0.00000000	      0.00000000	    -11.83481312	     25.80715752	   -298.83184814	   -296.27406685	  -1075.35713362	      0.00000000	      0.00000000	      0.00000000	   2715.64389065	     -3.13539894	    -28.17461749	   -300.04135132	   -305.55864033	   -763.98932411	      0.00000000	      0.00000000	     -0.00000000	  -2467.73916846	      0.00000000	     -0.00000000	      0.00000000	      0.00000000	      0.00000000	      0.00000000	      0.00000000	      0.00000000	      0.00000000
      2.48000000	      0.00000000	     -0.00000000	      0.00000000	      0.00000000	      0.00000000	      0.00000000	      0.00000000	      0.00000000	      0.00000000	    -12.01362228	     26.01627350	   -294.94479370	   -295.07423957	  -1073.38822252	      0.00000000	      0.00000000	      0.00000000	   2571.70310759	     -3.06582795	    -28.46070263	   -296.31112671	   -306.07816046	   -764.27497425	      0.00000000	      0.00000000	     -0.00000000	  -2455.24793393	      0.00000000	     -0.00000000	      0.00000000	      0.00000000	      0.00000000	      0.00000000	      0.00000000	      0.00000000	      0.00000000
      2.49000000	      0.00000000	     -0.00000000	      0.00000000	      0.00000000	      0.00000000	      0.00000000	      0.00000000	      0.00000000	      0.00000000	    -11.73601627	     25.86768341	   -295.69033813	   -295.31661551	  -1074.80155722	      0.00000000	      0.00000000	      0.00000000	   2750.15131657	     -2.68093236	    -28.13557792	   -292.90151978	   -305.10650259	   -763.70665536	      0.00000000	      0.00000000	     -0.00000000	  -2637.51306814	      0.00000000	     -0.00000000	      0.00000000	      0.00000000	      0.00000000	      0.00000000	      0.00000000	      0.00000000	      0.00000000
